Girl Friend Neeena  Sucking  1st April


File Info............

Format                           : MPEG-4
Codec ID                         : M4V 
File size                        : 19.6 MiB
Duration                         : 9mn 20s
Overall bit rate                 : 293 Kbps
Writing application              : Lavf52.93.0

Video
ID                               : 1
Format                           : AVC
Format/Info                      : Advanced Video Codec
Format profile                   : Baseline@L1.3
Format settings, CABAC           : No
Format settings, ReFrames        : 3 frames
Codec ID                         : avc1
Codec ID/Info                    : Advanced Video Coding
Duration                         : 9mn 20s
Bit rate mode                    : Variable
Bit rate                         : 256 Kbps
Width                            : 320 pixels
Height                           : 240 pixels
Display aspect ratio             : 16:9
Frame rate mode                  : Constant
Frame rate                       : 29.970 fps
Color space                      : YUV
Chroma subsampling               : 4:2:0
Bit depth                        : 8 bits
Scan type                        : Progressive
Bits/(Pixel*Frame)               : 0.111
Stream size                      : 17.2 MiB (88%)
Writing library                  : x264 core 118

Language                         : English

Audio
ID                               : 2
Format                           : AAC
Format/Info                      : Advanced Audio Codec
Format profile                   : LC
Codec ID                         : 40
Duration                         : 9mn 20s
Bit rate mode                    : Variable
Bit rate                         : 32.0 Kbps
Channel(s)                       : 1 channel
Channel positions                : Front: C
Sampling rate                    : 24.0 KHz
Compression mode                 : Lossy
Stream size                      : 2.14 MiB (11%)
Language                         : English




Screens...........
 
http://picturestack.com/337/509/boWStairs868.jpg

